<svg xmlns="http://www.w3.org/2000/svg" viewBox="0 0 192 192" width="192" height="192">
  <rect width="192" height="192" rx="24" fill="#E91E63"/>
  <g transform="translate(96,96)">
    <!-- City skyline -->
    <rect x="-60" y="-20" width="20" height="50" rx="2" fill="white" opacity="0.9"/>
    <rect x="-35" y="-35" width="18" height="65" rx="2" fill="white" opacity="0.85"/>
    <rect x="-12" y="-45" width="24" height="75" rx="2" fill="white" opacity="0.95"/>
    <rect x="17" y="-25" width="18" height="55" rx="2" fill="white" opacity="0.85"/>
    <rect x="40" y="-15" width="20" height="45" rx="2" fill="white" opacity="0.9"/>
    <!-- Windows -->
    <rect x="-55" y="-12" width="4" height="4" rx="1" fill="#E91E63"/>
    <rect x="-48" y="-12" width="4" height="4" rx="1" fill="#E91E63"/>
    <rect x="-55" y="-2" width="4" height="4" rx="1" fill="#E91E63"/>
    <rect x="-48" y="-2" width="4" height="4" rx="1" fill="#E91E63"/>
    <rect x="-6" y="-35" width="5" height="5" rx="1" fill="#E91E63"/>
    <rect x="2" y="-35" width="5" height="5" rx="1" fill="#E91E63"/>
    <rect x="-6" y="-25" width="5" height="5" rx="1" fill="#E91E63"/>
    <rect x="2" y="-25" width="5" height="5" rx="1" fill="#E91E63"/>
    <rect x="-6" y="-15" width="5" height="5" rx="1" fill="#E91E63"/>
    <rect x="2" y="-15" width="5" height="5" rx="1" fill="#E91E63"/>
    <!-- Star/sparkle -->
    <circle cx="35" cy="-55" r="4" fill="#FFD54F"/>
    <line x1="35" y1="-63" x2="35" y2="-47" stroke="#FFD54F" stroke-width="2"/>
    <line x1="27" y1="-55" x2="43" y2="-55" stroke="#FFD54F" stroke-width="2"/>
  </g>
</svg>
